<svg width="135" height="31" viewBox="0 0 135 31" fill="none" xmlns="http://www.w3.org/2000/svg">
<path d="M9.09188 30C7.51854 30 6.09188 29.64 4.81188 28.92C3.53188 28.1733 2.50521 27.1867 1.73188 25.96C0.985208 24.7067 0.611875 23.2933 0.611875 21.72C0.611875 20.5467 0.865208 19.4533 1.37188 18.44C1.90521 17.4 2.61188 16.5067 3.49188 15.76C2.63854 15.04 1.95854 14.1867 1.45188 13.2C0.971875 12.2133 0.731875 11.1733 0.731875 10.08C0.731875 8.53333 1.10521 7.16 1.85188 5.96C2.59854 4.73333 3.59854 3.77333 4.85188 3.08C6.10521 2.36 7.49188 2 9.01188 2H20.8119V7.6H10.0519C9.54521 7.6 9.07854 7.72 8.65188 7.96C8.22521 8.2 7.87854 8.52 7.61188 8.92C7.37188 9.32 7.25188 9.78667 7.25188 10.32C7.25188 10.8267 7.37188 11.2933 7.61188 11.72C7.87854 12.12 8.22521 12.44 8.65188 12.68C9.07854 12.8933 9.54521 13 10.0519 13H19.4519V18.6H10.2519C9.69188 18.6 9.18521 18.7333 8.73188 19C8.27854 19.2667 7.91854 19.6133 7.65188 20.04C7.38521 20.4667 7.25188 20.96 7.25188 21.52C7.25188 22.0533 7.38521 22.5467 7.65188 23C7.91854 23.4267 8.27854 23.76 8.73188 24C9.18521 24.24 9.69188 24.36 10.2519 24.36H20.8119V30H9.09188ZM34.735 30.48C33.0283 30.48 31.4817 30.2133 30.095 29.68C28.735 29.1467 27.5883 28.3867 26.655 27.4C25.7217 26.3867 25.0017 25.2 24.495 23.84C23.9883 22.48 23.735 21 23.735 19.4C23.735 17.32 24.1483 15.5067 24.975 13.96C25.8283 12.4133 26.9883 11.2 28.455 10.32C29.9483 9.44 31.655 9 33.575 9C34.4017 9 35.175 9.10667 35.895 9.32C36.6417 9.53333 37.3083 9.85333 37.895 10.28C38.5083 10.68 39.015 11.16 39.415 11.72H39.535V0.799999H45.735V19.36C45.735 21.6 45.2817 23.56 44.375 25.24C43.4683 26.92 42.1883 28.2133 40.535 29.12C38.9083 30.0267 36.975 30.48 34.735 30.48ZM34.735 25.12C35.695 25.12 36.5217 24.8933 37.215 24.44C37.935 23.96 38.4817 23.32 38.855 22.52C39.2283 21.6933 39.415 20.7733 39.415 19.76C39.415 18.7467 39.2283 17.84 38.855 17.04C38.4817 16.24 37.935 15.6133 37.215 15.16C36.5217 14.68 35.695 14.44 34.735 14.44C33.8017 14.44 32.975 14.68 32.255 15.16C31.535 15.6133 30.9883 16.24 30.615 17.04C30.2417 17.84 30.055 18.7467 30.055 19.76C30.055 20.7733 30.2417 21.6933 30.615 22.52C30.9883 23.32 31.535 23.96 32.255 24.44C32.975 24.8933 33.8017 25.12 34.735 25.12ZM60.4428 30.48C58.3361 30.48 56.5095 30.08 54.9628 29.28C53.4428 28.4533 52.2695 27.3467 51.4428 25.96C50.6161 24.5467 50.2028 22.9867 50.2028 21.28V9.48H56.4028V21.12C56.4028 21.84 56.5761 22.5067 56.9228 23.12C57.2695 23.7067 57.7361 24.1867 58.3228 24.56C58.9361 24.9067 59.6295 25.08 60.4028 25.08C61.1495 25.08 61.8161 24.9067 62.4028 24.56C63.0161 24.1867 63.4961 23.7067 63.8428 23.12C64.1895 22.5067 64.3628 21.84 64.3628 21.12V9.48H70.5628V21.28C70.5628 22.9867 70.1628 24.5467 69.3628 25.96C68.5628 27.3467 67.4028 28.4533 65.8828 29.28C64.3895 30.08 62.5761 30.48 60.4428 30.48ZM75.2028 30V17.88C75.2028 16.2 75.5895 14.6933 76.3628 13.36C77.1628 12 78.2961 10.9333 79.7628 10.16C81.2295 9.38667 82.9761 9 85.0028 9C86.0161 9 86.9495 9.12 87.8028 9.36C88.6561 9.57333 89.4295 9.88 90.1228 10.28C90.8428 10.6533 91.4561 11.1067 91.9628 11.64H92.0428C92.5761 11.1067 93.1895 10.6533 93.8828 10.28C94.6028 9.88 95.3895 9.57333 96.2428 9.36C97.1228 9.12 98.0695 9 99.0828 9C101.109 9 102.856 9.38667 104.323 10.16C105.789 10.9333 106.923 12 107.723 13.36C108.523 14.6933 108.923 16.2 108.923 17.88V30H102.683V18.08C102.683 17.4133 102.509 16.8133 102.163 16.28C101.843 15.72 101.403 15.2667 100.843 14.92C100.283 14.5733 99.6428 14.4 98.9228 14.4C98.2028 14.4 97.5495 14.5733 96.9628 14.92C96.4028 15.2667 95.9628 15.72 95.6428 16.28C95.3228 16.8133 95.1628 17.4133 95.1628 18.08V30H88.9628V18.08C88.9628 17.4133 88.7895 16.8133 88.4428 16.28C88.1228 15.72 87.6695 15.2667 87.0828 14.92C86.5228 14.5733 85.8828 14.4 85.1628 14.4C84.4428 14.4 83.7895 14.5733 83.2028 14.92C82.6428 15.2667 82.2028 15.72 81.8828 16.28C81.5628 16.8133 81.4028 17.4133 81.4028 18.08V30H75.2028ZM121.763 30.48C119.95 30.48 118.35 30.0133 116.963 29.08C115.576 28.1467 114.496 26.8933 113.723 25.32C112.95 23.72 112.563 21.92 112.563 19.92C112.563 17.84 113.016 15.9867 113.923 14.36C114.83 12.7067 116.11 11.4 117.763 10.44C119.443 9.48 121.416 9 123.683 9C125.976 9 127.923 9.48 129.523 10.44C131.15 11.3733 132.39 12.6667 133.243 14.32C134.123 15.9467 134.563 17.7733 134.563 19.8V30H128.483V26.72H128.323C127.95 27.44 127.47 28.0933 126.883 28.68C126.296 29.24 125.576 29.68 124.723 30C123.896 30.32 122.91 30.48 121.763 30.48ZM123.603 25.12C124.536 25.12 125.35 24.8933 126.043 24.44C126.763 23.96 127.31 23.3067 127.683 22.48C128.056 21.6533 128.243 20.7333 128.243 19.72C128.243 18.7333 128.056 17.84 127.683 17.04C127.31 16.24 126.763 15.6133 126.043 15.16C125.35 14.68 124.536 14.44 123.603 14.44C122.643 14.44 121.803 14.68 121.083 15.16C120.363 15.6133 119.816 16.24 119.443 17.04C119.07 17.84 118.883 18.7333 118.883 19.72C118.883 20.7333 119.07 21.6533 119.443 22.48C119.816 23.3067 120.363 23.96 121.083 24.44C121.803 24.8933 122.643 25.12 123.603 25.12Z" fill="url(#paint0_linear_3088_3226)"/>
<defs>
<linearGradient id="paint0_linear_3088_3226" x1="9.00605" y1="-11.1895" x2="68.1953" y2="47.8041" gradientUnits="userSpaceOnUse">
<stop stop-color="#077FFF"/>
<stop offset="1" stop-color="#003399"/>
</linearGradient>
</defs>
</svg>
