<svg width="24" height="24" viewBox="0 0 24 24" fill="none" xmlns="http://www.w3.org/2000/svg">
<path d="M10.0638 16H0.93617C0.419138 16 0 16.4477 0 17V23C0 23.5523 0.419138 24 0.93617 24H10.0638C10.5809 24 11 23.5523 11 23V17C11 16.4477 10.5809 16 10.0638 16Z" fill="#D8DEEA"/>
<path d="M23.0222 2H13.9778C13.4378 2 13 2.44772 13 3V12C13 12.5523 13.4378 13 13.9778 13H23.0222C23.5622 13 24 12.5523 24 12V3C24 2.44772 23.5622 2 23.0222 2Z" fill="#D8DEEA"/>
<path d="M23.0222 15H13.9778C13.4378 15 13 15.3838 13 15.8571V23.1429C13 23.6162 13.4378 24 13.9778 24H23.0222C23.5622 24 24 23.6162 24 23.1429V15.8571C24 15.3838 23.5622 15 23.0222 15Z" fill="#B1BBCF"/>
<path d="M10.0638 0H0.93617C0.419138 0 0 0.447715 0 1V14C0 14.5523 0.419138 15 0.93617 15H10.0638C10.5809 15 11 14.5523 11 14V1C11 0.447715 10.5809 0 10.0638 0Z" fill="#798BAD"/>
</svg>
