<svg width="10" height="9" viewBox="0 0 10 9" fill="none" xmlns="http://www.w3.org/2000/svg">
<path d="M0.0120527 3.35811C-0.0147311 3.19514 0.00312478 3.04074 0.0656205 2.89493C0.128116 2.74911 0.226324 2.63331 0.360243 2.54753C0.494162 2.46176 0.654866 2.41458 0.842353 2.406H1.67265C1.67265 1.74553 1.91817 1.17941 2.40921 0.707648C2.90025 0.235883 3.49396 0 4.19034 0H5.86433C6.06074 0 6.23037 0.0557541 6.37322 0.167262C6.51607 0.278771 6.60535 0.411723 6.64106 0.566119C6.67677 0.720515 6.67677 0.879199 6.64106 1.04217C6.60535 1.20515 6.51607 1.3381 6.37322 1.44103C6.23037 1.54396 6.06074 1.59971 5.86433 1.60829H4.19034C3.95821 1.60829 3.75733 1.68549 3.5877 1.83989C3.41807 1.99428 3.33772 2.18299 3.34664 2.406H4.19034C4.3689 2.406 4.5296 2.45747 4.67245 2.5604C4.81529 2.66333 4.9135 2.77913 4.96707 2.90779C5.02064 3.03645 5.03403 3.18656 5.00724 3.35811C4.98046 3.52966 4.90457 3.67119 4.77958 3.7827L3.10559 5.39099C2.92703 5.55397 2.72615 5.63545 2.50295 5.63545C2.27975 5.63545 2.0878 5.55397 1.9271 5.39099L0.253108 3.7827C0.119188 3.66262 0.0388366 3.52109 0.0120527 3.35811ZM3.34664 8.43388C3.31986 8.27091 3.31986 8.11222 3.34664 7.95783C3.37343 7.80343 3.46271 7.67048 3.61448 7.55897C3.76626 7.44746 3.94035 7.39171 4.13677 7.39171H5.81076C6.03396 7.39171 6.23037 7.31451 6.40001 7.16011C6.56964 7.00572 6.64999 6.81272 6.64106 6.58113H5.81076C5.62327 6.58113 5.45811 6.53395 5.31526 6.4396C5.17241 6.34525 5.0742 6.22516 5.02064 6.07934C4.96707 5.93352 4.95368 5.78342 4.98046 5.62902C5.00724 5.47462 5.0876 5.33738 5.22152 5.2173L6.89551 3.60901C7.06514 3.44603 7.26155 3.36455 7.48475 3.36455C7.70795 3.36455 7.90437 3.44174 8.074 3.59614L9.74799 5.20443C9.88191 5.3331 9.96226 5.47891 9.98904 5.64189C10.0158 5.80486 9.99351 5.95497 9.92208 6.09221C9.85066 6.22945 9.75245 6.34525 9.62746 6.4396C9.50247 6.53395 9.34623 6.58113 9.15874 6.58113H8.31505C8.31505 7.25018 8.06953 7.82059 7.5785 8.29235C7.08746 8.76412 6.49821 9 5.81076 9H4.13677C3.93143 9 3.75733 8.94425 3.61448 8.83274C3.47164 8.72123 3.38236 8.58828 3.34664 8.43388Z" fill="white"/>
</svg>
