<svg width="24" height="24" viewBox="0 0 24 24" fill="none" xmlns="http://www.w3.org/2000/svg">
<path d="M20.9032 2H3.09677C1.38647 2 0 3.35858 0 5.03448V20.9655C0 22.6414 1.38647 24 3.09677 24H20.9032C22.6135 24 24 22.6414 24 20.9655V5.03448C24 3.35858 22.6135 2 20.9032 2Z" fill="white"/>
<path d="M0 5C0 3.34315 1.34315 2 3 2H21C22.6569 2 24 3.34315 24 5H0Z" fill="#077FFF"/>
<path d="M4 0C4.26522 0 4.51957 0.105357 4.70711 0.292893C4.89464 0.48043 5 0.734784 5 1V2H3V1C3 0.734784 3.10536 0.48043 3.29289 0.292893C3.48043 0.105357 3.73478 0 4 0Z" fill="#077FFF"/>
<path d="M12 0C12.2652 0 12.5196 0.105357 12.7071 0.292893C12.8946 0.48043 13 0.734784 13 1V2H11V1C11 0.734784 11.1054 0.48043 11.2929 0.292893C11.4804 0.105357 11.7348 0 12 0Z" fill="#077FFF"/>
<path d="M20 0C20.2652 0 20.5196 0.105357 20.7071 0.292893C20.8946 0.48043 21 0.734784 21 1V2H19V1C19 0.734784 19.1054 0.48043 19.2929 0.292893C19.4804 0.105357 19.7348 0 20 0Z" fill="#077FFF"/>
<path opacity="0.5" d="M6.25 9H4.75C4.33579 9 4 9.33579 4 9.75V11.25C4 11.6642 4.33579 12 4.75 12H6.25C6.66421 12 7 11.6642 7 11.25V9.75C7 9.33579 6.66421 9 6.25 9Z" fill="#077FFF"/>
<path opacity="0.5" d="M12.25 9H10.75C10.3358 9 10 9.33579 10 9.75V11.25C10 11.6642 10.3358 12 10.75 12H12.25C12.6642 12 13 11.6642 13 11.25V9.75C13 9.33579 12.6642 9 12.25 9Z" fill="#077FFF"/>
<path opacity="0.5" d="M19.25 9H17.75C17.3358 9 17 9.33579 17 9.75V11.25C17 11.6642 17.3358 12 17.75 12H19.25C19.6642 12 20 11.6642 20 11.25V9.75C20 9.33579 19.6642 9 19.25 9Z" fill="#077FFF"/>
<path opacity="0.5" d="M6.25 15H4.75C4.33579 15 4 15.3358 4 15.75V17.25C4 17.6642 4.33579 18 4.75 18H6.25C6.66421 18 7 17.6642 7 17.25V15.75C7 15.3358 6.66421 15 6.25 15Z" fill="#077FFF"/>
<path opacity="0.5" d="M12.25 15H10.75C10.3358 15 10 15.3358 10 15.75V17.25C10 17.6642 10.3358 18 10.75 18H12.25C12.6642 18 13 17.6642 13 17.25V15.75C13 15.3358 12.6642 15 12.25 15Z" fill="#077FFF"/>
</svg>
